<svg width="24" height="24" viewBox="0 0 24 24" fill="none" xmlns="http://www.w3.org/2000/svg">
<path d="M18.4589 8.93319H18.068V6.32032C18.0681 3.3867 15.4642 1 12.2636 1C9.06302 1 6.45913 3.3867 6.45913 6.32032V8.93319H6.06799C4.92776 8.93319 4 9.78364 4 10.8289V21.1043C4 22.1496 4.92776 23 6.06799 23H18.4589C19.5991 23 20.5269 22.1496 20.5269 21.1043V10.8289C20.5269 9.78364 19.5992 8.93319 18.4589 8.93319ZM8.23169 6.32032C8.23169 4.28264 10.0404 2.62486 12.2636 2.62486C14.4867 2.62486 16.2954 4.28264 16.2954 6.32032V8.93319H8.23169V6.32032ZM18.7543 21.1044C18.7543 21.2512 18.619 21.3753 18.4589 21.3753H6.06799C5.90787 21.3753 5.77256 21.2512 5.77256 21.1044V10.8289C5.77256 10.6821 5.90787 10.558 6.06799 10.558H7.34541H17.1817H18.4589C18.619 10.558 18.7543 10.6821 18.7543 10.8289V21.1044Z" fill="#6B6B6B"/>
<path d="M12.2632 13.7443C11.7738 13.7443 11.377 14.141 11.377 14.6306V18.0239C11.377 18.5135 11.7738 18.9102 12.2632 18.9102C12.7527 18.9102 13.1495 18.5135 13.1495 18.0239V14.6306C13.1495 14.141 12.7527 13.7443 12.2632 13.7443Z" fill="#6B6B6B"/>
</svg>
